<?xml version="1.0" encoding="UTF-8"?>
<svg xmlns="http://www.w3.org/2000/svg" xmlns:xlink="http://www.w3.org/1999/xlink" width="177.73354pt" height="120pt" viewBox="0 0 177.73354 120" version="1.2">
<defs>
<clipPath id="clip1">
  <path d="M 73 21 L 190 21 L 190 41 L 73 41 Z M 73 21 "/>
</clipPath>
</defs>
<g id="surface1">
<g transform="translate(-10, 0)">
<path style=" stroke:none;fill-rule:evenodd;fill:rgb(3.106689%,12.084961%,19.812012%);fill-opacity:1;" d="M 54.878906 15.21875 C 57.757812 15.21875 60.089844 17.550781 60.089844 20.425781 C 60.089844 23.304688 57.757812 25.636719 54.878906 25.636719 C 52.003906 25.636719 49.671875 23.304688 49.671875 20.425781 C 49.671875 17.550781 52.003906 15.21875 54.878906 15.21875 "/>
<path style=" stroke:none;fill-rule:evenodd;fill:rgb(96.626282%,54.719543%,26.725769%);fill-opacity:1;" d="M 54.246094 58.625 C 54.703125 58.199219 54.792969 57.65625 54.882812 56.925781 C 54.976562 56.203125 54.917969 54.441406 54.734375 53.722656 C 54.6875 53.539062 54.679688 53.390625 54.628906 53.21875 C 54.574219 53.023438 54.566406 52.980469 54.535156 52.757812 L 53.769531 50.023438 C 53.644531 49.730469 53.550781 49.460938 53.421875 49.199219 C 53.160156 48.675781 52.910156 48.164062 52.589844 47.699219 C 52.316406 47.304688 51.597656 46.445312 51.203125 46.199219 C 49.65625 45.238281 50.820312 45.71875 48.542969 44.796875 C 47.375 44.324219 47.417969 44.515625 46.710938 44.304688 C 45.953125 44.074219 44.320312 44.0625 43.480469 44.042969 C 43.039062 44.035156 42.761719 43.988281 42.40625 43.960938 C 41.703125 43.910156 40.824219 43.917969 40.125 43.902344 C 39.320312 43.886719 38.707031 43.785156 37.886719 43.769531 C 37.363281 43.757812 36.921875 43.632812 36.453125 43.519531 C 36.300781 43.480469 36.136719 43.484375 35.953125 43.449219 C 34.28125 43.148438 31.714844 41.785156 31.734375 43.527344 C 31.746094 44.800781 32.644531 45.609375 33.628906 46.246094 C 34.246094 46.644531 36.863281 47.785156 37.671875 48.03125 C 38.160156 48.179688 39.074219 48.3125 39.074219 48.882812 C 38.582031 49.347656 38.40625 49.140625 37.746094 49.003906 C 37.578125 48.96875 37.441406 48.964844 37.273438 48.929688 C 36.652344 48.796875 36.097656 48.5625 35.519531 48.359375 C 34.417969 47.972656 33.378906 47.402344 32.363281 46.851562 C 30.710938 45.953125 28.460938 44.28125 27.050781 42.902344 C 26.792969 42.644531 26.113281 42.039062 25.878906 41.742188 C 24.386719 39.859375 23.679688 39.28125 22.441406 37.03125 C 22.398438 36.953125 22.386719 36.914062 22.328125 36.820312 C 21.921875 36.167969 21.699219 35.441406 21.175781 34.800781 C 20.628906 34.128906 19.335938 34.3125 19.210938 35.605469 C 19.15625 36.164062 19.375 36.988281 19.515625 37.554688 L 20.050781 39.363281 C 20.746094 41.214844 20.917969 41.5625 21.898438 43.34375 C 23.980469 47.136719 28.363281 51.808594 32.355469 53.777344 C 32.625 53.910156 32.933594 54.03125 33.164062 54.132812 C 33.867188 54.445312 34.945312 54.894531 35.695312 55.085938 C 36.007812 55.167969 36.324219 55.226562 36.617188 55.332031 C 37.203125 55.542969 38.050781 55.5625 38.601562 55.644531 C 40.097656 55.867188 42.53125 55.582031 44.132812 55.472656 C 45.976562 55.34375 45.871094 55.480469 47.335938 55.683594 C 47.679688 55.730469 47.546875 55.765625 47.746094 55.839844 C 48.15625 55.996094 49.027344 56.167969 49.539062 56.386719 C 49.691406 56.453125 49.734375 56.511719 49.894531 56.585938 C 50.386719 56.804688 50.953125 57.140625 51.34375 57.46875 C 52.078125 58.097656 53.339844 59.464844 54.246094 58.625 "/>
<path style=" stroke:none;fill-rule:evenodd;fill:rgb(3.106689%,12.084961%,19.812012%);fill-opacity:1;" d="M 56.5 39.441406 C 56.695312 39.386719 56.929688 39.394531 57.132812 39.402344 C 58.5 39.464844 59.304688 39.703125 60.707031 39.265625 C 61.4375 39.039062 61.855469 38.761719 62.6875 38.636719 C 63.417969 38.527344 64.308594 38.578125 65.007812 38.8125 C 65.390625 38.941406 65.660156 39.027344 66.082031 39.03125 C 66.59375 39.039062 66.621094 38.789062 66.613281 38.304688 C 66.609375 37.898438 66.269531 37.273438 66.058594 36.9375 L 65.359375 36.179688 C 65.292969 36.128906 65.316406 36.15625 65.253906 36.101562 C 64.980469 35.878906 65.003906 35.863281 64.65625 35.714844 C 64.523438 35.65625 64.382812 35.566406 64.222656 35.492188 C 63.585938 35.195312 62.503906 35.371094 61.699219 35.378906 C 61.105469 35.382812 60.347656 34.9375 59.929688 34.53125 C 59.410156 34.023438 59.246094 33.320312 59.238281 32.625 C 59.21875 31.464844 59.132812 31.199219 59.980469 30.765625 C 61.441406 30.019531 63.8125 28.464844 64.773438 27.257812 L 65.671875 26.019531 C 65.78125 25.839844 65.996094 25.355469 66.089844 25.128906 C 66.167969 24.941406 66.175781 24.738281 66.140625 24.519531 C 66.109375 24.304688 66.042969 24.175781 65.890625 24.070312 C 65.375 24.039062 65.230469 24.0625 64.820312 24.230469 C 64.1875 24.480469 63.625 24.777344 62.996094 25.035156 C 60.125 26.226562 59.496094 26.761719 56.0625 27.257812 C 54.953125 27.289062 53.726562 27.058594 52.699219 26.65625 C 52.539062 26.59375 52.347656 26.566406 52.214844 26.492188 L 50.929688 25.835938 C 50.65625 25.726562 49.058594 24.640625 48.777344 24.390625 C 48.375 24.027344 48.074219 23.589844 47.644531 23.242188 C 47.46875 23.101562 47.226562 22.757812 47.03125 22.550781 L 46.457031 21.820312 C 46.265625 21.570312 46.070312 21.410156 45.875 21.089844 L 44.980469 20.03125 C 44.714844 19.773438 44.320312 19.769531 44.023438 19.941406 C 43.683594 20.136719 43.636719 20.320312 43.632812 20.832031 C 43.628906 21.121094 43.746094 21.703125 43.84375 21.921875 C 43.914062 22.078125 44.214844 22.820312 44.222656 22.832031 C 44.511719 23.136719 44.53125 23.332031 44.734375 23.632812 C 45.070312 24.125 45.46875 24.664062 45.820312 25.160156 C 46.117188 25.46875 46.164062 25.652344 46.378906 25.90625 C 46.851562 26.480469 47.050781 26.882812 47.449219 27.449219 C 47.625 27.699219 47.828125 27.933594 47.96875 28.234375 C 48.265625 28.859375 48.574219 29.421875 48.691406 30.121094 C 48.816406 30.875 48.980469 31.605469 49.039062 32.382812 C 49.0625 32.679688 49.140625 33.164062 49.171875 33.554688 C 49.351562 35.675781 49.984375 38.816406 51.285156 40.570312 C 52.023438 41.566406 52.15625 41.761719 53.082031 42.683594 C 53.226562 42.828125 53.464844 43.011719 53.566406 43.175781 C 54.636719 44.8125 54.714844 44.636719 55.535156 46.757812 C 55.667969 47.109375 55.765625 47.425781 56.238281 47.238281 C 57.410156 46.777344 57.433594 45.492188 57.289062 44.417969 C 57.238281 44.03125 56.300781 42.21875 56.039062 41.777344 C 55.777344 41.335938 55.546875 40.679688 55.6875 40.1875 C 55.714844 40.085938 55.734375 40.023438 55.78125 39.949219 C 55.890625 39.761719 56.195312 39.53125 56.5 39.441406 "/>
<path style=" stroke:none;fill-rule:evenodd;fill:rgb(29.244995%,74.786377%,69.459534%);fill-opacity:1;" d="M 38.46875 40.042969 C 38.738281 39.9375 39.007812 39.839844 39.3125 39.6875 C 40.042969 39.324219 40.148438 39.257812 40.78125 38.78125 C 42.277344 37.667969 43.113281 36.386719 43.773438 34.542969 C 44.113281 33.597656 44.183594 32.324219 44.152344 31.316406 C 44.128906 30.59375 43.691406 29.113281 43.414062 28.460938 C 42.980469 27.433594 42.257812 26.355469 41.511719 25.554688 C 40.417969 24.386719 39.472656 23.707031 37.988281 23.066406 L 36.140625 22.535156 C 35.949219 22.5 35.757812 22.515625 35.570312 22.484375 C 35.40625 22.460938 35.28125 22.398438 35.089844 22.382812 C 34.675781 22.34375 33.738281 22.324219 33.351562 22.441406 L 32.835938 22.5625 C 32.46875 22.460938 31.402344 22.875 31.050781 22.980469 C 29.660156 23.390625 27.808594 24.707031 26.949219 25.738281 C 26.609375 26.140625 26.253906 26.597656 25.972656 27 C 25.796875 27.25 25.703125 27.488281 25.5625 27.707031 C 25.253906 28.191406 25.207031 28.402344 24.992188 28.863281 C 24.921875 29.019531 24.578125 29.957031 24.554688 30.152344 C 24.515625 30.546875 24.464844 30.601562 24.378906 31.09375 C 24.207031 32.113281 24.242188 32.21875 24.25 33.273438 C 24.253906 33.757812 24.359375 33.886719 24.390625 34.253906 C 24.40625 34.433594 24.394531 34.644531 24.417969 34.8125 C 24.453125 35.046875 24.503906 34.984375 24.542969 35.234375 C 24.714844 36.367188 25.628906 38.425781 26.214844 39.3125 C 26.980469 40.472656 28.328125 42.09375 29.453125 42.875 L 30.410156 43.597656 C 30.539062 43.722656 30.578125 43.804688 30.832031 43.738281 C 30.859375 43.386719 30.820312 43.058594 30.886719 42.730469 C 30.929688 42.507812 31.003906 41.960938 30.992188 41.707031 C 30.546875 41.363281 30.09375 40.882812 29.726562 40.460938 C 29.148438 39.800781 28.628906 39.023438 28.132812 38.28125 C 27.789062 37.761719 27.527344 37.199219 27.273438 36.628906 C 27.148438 36.34375 27.066406 36.046875 26.925781 35.71875 C 26.769531 35.347656 26.566406 34.027344 26.5625 33.554688 C 26.542969 31.613281 26.78125 30.160156 27.804688 28.5 C 28.617188 27.179688 29.554688 26.214844 31.0625 25.425781 L 32.40625 24.902344 C 32.597656 24.839844 32.773438 24.839844 32.933594 24.78125 C 33.390625 24.625 34.792969 24.601562 35.300781 24.691406 C 35.738281 24.765625 36.878906 25.074219 37.246094 25.257812 C 38.144531 25.695312 38.761719 26.074219 39.460938 26.808594 C 40.070312 27.449219 40.75 28.214844 41.054688 29.039062 C 41.332031 29.789062 41.316406 29.582031 41.539062 30.417969 C 41.589844 30.613281 41.652344 30.652344 41.671875 30.941406 C 41.847656 33.445312 41.519531 34.71875 39.820312 36.558594 C 39.453125 36.953125 38.960938 37.296875 38.417969 37.589844 C 37.738281 37.957031 37.371094 38.039062 36.503906 38.160156 C 34.886719 38.390625 32.765625 37.246094 32.117188 35.6875 C 32.050781 35.527344 31.964844 35.363281 31.921875 35.242188 C 31.460938 33.917969 31.726562 32.3125 32.726562 31.375 C 32.976562 31.136719 33.179688 31.015625 33.464844 30.851562 C 34.429688 30.304688 35.8125 30.457031 36.519531 31.199219 C 36.8125 31.503906 36.675781 31.296875 36.949219 31.742188 C 37.582031 32.773438 37.359375 33.875 36.574219 34.382812 C 36.042969 34.726562 35.488281 34.898438 34.929688 34.460938 L 34.789062 34.304688 C 34.6875 34.238281 34.761719 34.304688 34.679688 34.203125 L 34.503906 33.824219 C 34.464844 33.640625 34.457031 33.335938 34.507812 33.152344 C 34.609375 32.773438 34.976562 32.507812 34.960938 32.148438 C 34.714844 32.105469 33.617188 32.113281 33.382812 32.171875 C 33.132812 32.34375 32.707031 33.808594 32.839844 34.4375 C 32.898438 34.703125 33.027344 34.898438 33.082031 35.171875 C 33.132812 35.222656 33.269531 35.464844 33.351562 35.574219 C 33.957031 36.371094 34.609375 36.757812 35.652344 36.796875 C 36.015625 36.8125 36.671875 36.8125 36.976562 36.695312 C 38.148438 36.25 39.347656 35.085938 39.539062 33.679688 C 39.59375 33.285156 39.558594 32.703125 39.550781 32.292969 C 39.535156 31.34375 38.566406 29.828125 37.71875 29.25 C 36.433594 28.375 35.449219 28.191406 33.789062 28.328125 C 32.589844 28.421875 31.097656 29.519531 30.375 30.515625 C 30.148438 30.824219 29.796875 31.480469 29.652344 31.886719 C 29.230469 33.082031 29.359375 33.894531 29.453125 35 C 29.523438 35.847656 30.269531 37.148438 30.855469 37.789062 C 31.078125 38.035156 31.273438 38.277344 31.53125 38.515625 C 31.976562 38.929688 32.554688 39.394531 33.15625 39.691406 C 34.753906 40.484375 36.785156 40.683594 38.46875 40.042969 "/>
<g clip-path="url(#clip1)" clip-rule="nonzero">
<!-- First S -->
<path style=" stroke:none;fill-rule:nonzero;fill:rgb(3.106689%,12.084961%,19.812012%);fill-opacity:1;" d="M 85.203125 35.003906 C 85.203125 36.644531 84.613281 37.933594 83.421875 38.867188 C 82.238281 39.800781 80.601562 40.265625 78.511719 40.265625 C 76.421875 40.265625 74.71875 39.945312 73.386719 39.292969 L 73.386719 36.433594 C 74.230469 36.828125 75.121094 37.140625 76.070312 37.367188 C 77.015625 37.597656 77.894531 37.707031 78.714844 37.707031 C 79.914062 37.707031 80.792969 37.480469 81.359375 37.027344 C 81.929688 36.574219 82.210938 35.96875 82.210938 35.203125 C 82.210938 34.515625 81.949219 33.929688 81.429688 33.453125 C 80.90625 32.96875 79.832031 32.40625 78.199219 31.746094 C 76.511719 31.066406 75.328125 30.285156 74.636719 29.410156 C 73.945312 28.535156 73.601562 27.484375 73.601562 26.257812 C 73.601562 24.714844 74.148438 23.503906 75.242188 22.621094 C 76.335938 21.738281 77.804688 21.296875 79.648438 21.296875 C 81.414062 21.296875 83.171875 21.683594 84.925781 22.453125 L 83.964844 24.914062 C 82.324219 24.226562 80.859375 23.878906 79.570312 23.878906 C 78.59375 23.878906 77.851562 24.089844 77.347656 24.519531 C 76.84375 24.945312 76.589844 25.503906 76.589844 26.207031 C 76.589844 26.683594 76.695312 27.09375 76.898438 27.4375 C 77.097656 27.777344 77.429688 28.097656 77.890625 28.402344 C 78.355469 28.703125 79.1875 29.105469 80.394531 29.601562 C 81.746094 30.164062 82.742188 30.691406 83.371094 31.175781 C 84.003906 31.667969 84.464844 32.21875 84.761719 32.832031 C 85.054688 33.449219 85.203125 34.171875 85.203125 35.003906 Z"/>

<!-- E -->
<path style=" stroke:none;fill-rule:nonzero;fill:rgb(3.106689%,12.084961%,19.812012%);fill-opacity:1;" d="M 99.207031 40.007812 L 88.769531 40.007812 L 88.769531 21.554688 L 99.207031 21.554688 L 99.207031 24.113281 L 91.789062 24.113281 L 91.789062 29.125 L 98.738281 29.125 L 98.738281 31.660156 L 91.789062 31.660156 L 91.789062 37.449219 L 99.207031 37.449219 Z"/>

<!-- N -->
<path style=" stroke:none;fill-rule:nonzero;fill:rgb(3.106689%,12.084961%,19.812012%);fill-opacity:1;" d="M 118.566406 40.007812 L 114.863281 40.007812 L 105.796875 25.300781 L 105.695312 25.300781 L 105.757812 26.125 C 105.875 27.6875 105.933594 29.117188 105.933594 30.414062 L 105.933594 40.007812 L 103.195312 40.007812 L 103.195312 21.554688 L 106.855469 21.554688 L 115.902344 36.183594 L 115.976562 36.183594 C 115.957031 35.988281 115.925781 35.285156 115.875 34.066406 C 115.824219 32.851562 115.800781 31.90625 115.800781 31.226562 L 115.800781 21.554688 L 118.566406 21.554688 Z"/>

<!-- Second S -->
<path style=" stroke:none;fill-rule:nonzero;fill:rgb(3.106689%,12.084961%,19.812012%);fill-opacity:1;" d="M 134.082031 35.003906 C 134.082031 36.644531 133.492188 37.933594 132.300781 38.867188 C 131.117188 39.800781 129.480469 40.265625 127.390625 40.265625 C 125.300781 40.265625 123.597656 39.945312 122.265625 39.292969 L 122.265625 36.433594 C 123.109375 36.828125 124 37.140625 124.949219 37.367188 C 125.894531 37.597656 126.773438 37.707031 127.59375 37.707031 C 128.792969 37.707031 129.671875 37.480469 130.238281 37.027344 C 130.808594 36.574219 131.089844 35.96875 131.089844 35.203125 C 131.089844 34.515625 130.828125 33.929688 130.308594 33.453125 C 129.785156 32.96875 128.710938 32.40625 127.078125 31.746094 C 125.390625 31.066406 124.207031 30.285156 123.515625 29.410156 C 122.824219 28.535156 122.480469 27.484375 122.480469 26.257812 C 122.480469 24.714844 123.027344 23.503906 124.121094 22.621094 C 125.214844 21.738281 126.683594 21.296875 128.527344 21.296875 C 130.292969 21.296875 132.050781 21.683594 133.804688 22.453125 L 132.84375 24.914062 C 131.203125 24.226562 129.738281 23.878906 128.449219 23.878906 C 127.472656 23.878906 126.730469 24.089844 126.226562 24.519531 C 125.722656 24.945312 125.46875 25.503906 125.46875 26.207031 C 125.46875 26.683594 125.574219 27.09375 125.777344 27.4375 C 125.976562 27.777344 126.308594 28.097656 126.769531 28.402344 C 127.234375 28.703125 128.066406 29.105469 129.273438 29.601562 C 130.625 30.164062 131.621094 30.691406 132.25 31.175781 C 132.882812 31.667969 133.34375 32.21875 133.640625 32.832031 C 133.933594 33.449219 134.082031 34.171875 134.082031 35.003906 Z"/>

<!-- U -->
<path style=" stroke:none;fill-rule:nonzero;fill:rgb(3.106689%,12.084961%,19.812012%);fill-opacity:1;" d="M 152.109375 21.554688 L 152.109375 33.5 C 152.109375 34.859375 151.816406 36.054688 151.230469 37.078125 C 150.648438 38.101562 149.800781 38.886719 148.695312 39.441406 C 147.589844 39.992188 146.265625 40.265625 144.726562 40.265625 C 142.4375 40.265625 140.660156 39.660156 139.390625 38.449219 C 138.121094 37.234375 137.484375 35.570312 137.484375 33.449219 L 137.484375 21.554688 L 140.511719 21.554688 L 140.511719 33.226562 C 140.511719 34.75 140.867188 35.871094 141.570312 36.597656 C 142.277344 37.320312 143.363281 37.683594 144.828125 37.683594 C 147.671875 37.683594 149.09375 36.1875 149.09375 33.203125 L 149.09375 21.554688 Z"/>

<!-- Last S (copy of first S with adjusted coordinates) -->
<path style=" stroke:none;fill-rule:nonzero;fill:rgb(3.106689%,12.084961%,19.812012%);fill-opacity:1;" d="M 167.472656 35.003906 C 167.472656 36.644531 166.882812 37.933594 165.691406 38.867188 C 164.507812 39.800781 162.871094 40.265625 160.78125 40.265625 C 158.691406 40.265625 156.988281 39.945312 155.65625 39.292969 L 155.65625 36.433594 C 156.5 36.828125 157.390625 37.140625 158.339844 37.367188 C 159.285156 37.597656 160.164062 37.707031 160.984375 37.707031 C 162.183594 37.707031 163.0625 37.480469 163.628906 37.027344 C 164.199219 36.574219 164.480469 35.96875 164.480469 35.203125 C 164.480469 34.515625 164.21875 33.929688 163.699219 33.453125 C 163.175781 32.96875 162.101562 32.40625 160.46875 31.746094 C 158.78125 31.066406 157.597656 30.285156 156.90625 29.410156 C 156.214844 28.535156 155.871094 27.484375 155.871094 26.257812 C 155.871094 24.714844 156.417969 23.503906 157.511719 22.621094 C 158.605469 21.738281 160.074219 21.296875 161.917969 21.296875 C 163.683594 21.296875 165.441406 21.683594 167.195312 22.453125 L 166.234375 24.914062 C 164.59375 24.226562 163.128906 23.878906 161.839844 23.878906 C 160.863281 23.878906 160.121094 24.089844 159.617188 24.519531 C 159.113281 24.945312 158.859375 25.503906 158.859375 26.207031 C 158.859375 26.683594 158.964844 27.09375 159.167969 27.4375 C 159.367188 27.777344 159.699219 28.097656 160.160156 28.402344 C 160.625 28.703125 161.457031 29.105469 162.664062 29.601562 C 164.015625 30.164062 165.011719 30.691406 165.640625 31.175781 C 166.273438 31.667969 166.734375 32.21875 167.03125 32.832031 C 167.324219 33.449219 167.472656 34.171875 167.472656 35.003906 Z"/>
</g>
<path style=" stroke:none;fill-rule:nonzero;fill:rgb(3.106689%,12.084961%,19.812012%);fill-opacity:1;" d="M 76.304688 46.195312 C 75.738281 46.195312 75.289062 46.398438 74.964844 46.800781 C 74.640625 47.199219 74.480469 47.753906 74.480469 48.460938 C 74.480469 49.203125 74.636719 49.761719 74.949219 50.140625 C 75.257812 50.519531 75.710938 50.710938 76.304688 50.710938 C 76.558594 50.710938 76.808594 50.683594 77.046875 50.632812 C 77.285156 50.582031 77.535156 50.515625 77.792969 50.4375 L 77.792969 51.285156 C 77.320312 51.464844 76.785156 51.554688 76.183594 51.554688 C 75.300781 51.554688 74.621094 51.289062 74.148438 50.753906 C 73.675781 50.21875 73.4375 49.453125 73.4375 48.453125 C 73.4375 47.828125 73.554688 47.277344 73.785156 46.808594 C 74.011719 46.335938 74.34375 45.976562 74.78125 45.726562 C 75.214844 45.476562 75.726562 45.351562 76.3125 45.351562 C 76.929688 45.351562 77.5 45.480469 78.023438 45.738281 L 77.667969 46.558594 C 77.464844 46.460938 77.246094 46.378906 77.019531 46.304688 C 76.792969 46.234375 76.554688 46.195312 76.304688 46.195312 Z M 82.507812 51.472656 L 79.09375 51.472656 L 79.09375 45.433594 L 82.507812 45.433594 L 82.507812 46.273438 L 80.082031 46.273438 L 80.082031 47.914062 L 82.351562 47.914062 L 82.351562 48.742188 L 80.082031 48.742188 L 80.082031 50.632812 L 82.507812 50.632812 Z M 88.839844 51.472656 L 87.628906 51.472656 L 84.664062 46.660156 L 84.628906 46.660156 L 84.648438 46.929688 C 84.6875 47.441406 84.707031 47.910156 84.707031 48.332031 L 84.707031 51.472656 L 83.8125 51.472656 L 83.8125 45.433594 L 85.007812 45.433594 L 87.96875 50.21875 L 87.992188 50.21875 C 87.984375 50.15625 87.976562 49.925781 87.960938 49.527344 C 87.941406 49.128906 87.933594 48.820312 87.933594 48.597656 L 87.933594 45.433594 L 88.839844 45.433594 Z M 92.515625 51.472656 L 91.53125 51.472656 L 91.53125 46.28125 L 89.753906 46.28125 L 89.753906 45.433594 L 94.292969 45.433594 L 94.292969 46.28125 L 92.515625 46.28125 Z M 96.203125 48.242188 L 96.886719 48.242188 C 97.347656 48.242188 97.679688 48.15625 97.886719 47.988281 C 98.09375 47.816406 98.195312 47.5625 98.195312 47.230469 C 98.195312 46.886719 98.085938 46.644531 97.863281 46.496094 C 97.640625 46.347656 97.300781 46.273438 96.855469 46.273438 L 96.203125 46.273438 Z M 96.203125 49.0625 L 96.203125 51.472656 L 95.214844 51.472656 L 95.214844 45.433594 L 96.921875 45.433594 C 97.699219 45.433594 98.277344 45.582031 98.648438 45.875 C 99.023438 46.164062 99.210938 46.605469 99.210938 47.195312 C 99.210938 47.945312 98.820312 48.484375 98.039062 48.800781 L 99.742188 51.472656 L 98.621094 51.472656 L 97.175781 49.0625 Z M 105.347656 45.433594 L 105.347656 49.34375 C 105.347656 49.789062 105.253906 50.179688 105.0625 50.511719 C 104.871094 50.847656 104.59375 51.105469 104.234375 51.285156 C 103.871094 51.464844 103.4375 51.554688 102.933594 51.554688 C 102.1875 51.554688 101.605469 51.355469 101.191406 50.960938 C 100.773438 50.5625 100.566406 50.019531 100.566406 49.324219 L 100.566406 45.433594 L 101.554688 45.433594 L 101.554688 49.253906 C 101.554688 49.75 101.671875 50.117188 101.902344 50.355469 C 102.132812 50.59375 102.488281 50.710938 102.96875 50.710938 C 103.898438 50.710938 104.363281 50.222656 104.363281 49.246094 L 104.363281 45.433594 Z M 109.503906 51.472656 L 107.753906 46.429688 L 107.71875 46.429688 C 107.765625 47.179688 107.789062 47.882812 107.789062 48.535156 L 107.789062 51.472656 L 106.894531 51.472656 L 106.894531 45.433594 L 108.285156 45.433594 L 109.960938 50.238281 L 109.984375 50.238281 L 111.710938 45.433594 L 113.105469 45.433594 L 113.105469 51.472656 L 112.15625 51.472656 L 112.15625 48.484375 C 112.15625 48.1875 112.164062 47.796875 112.179688 47.3125 C 112.195312 46.832031 112.207031 46.539062 112.21875 46.4375 L 112.1875 46.4375 L 110.375 51.472656 Z M 118.976562 51.472656 L 117.988281 51.472656 L 117.988281 46.28125 L 116.214844 46.28125 L 116.214844 45.433594 L 120.75 45.433594 L 120.75 46.28125 L 118.976562 46.28125 Z M 125.089844 51.472656 L 121.675781 51.472656 L 121.675781 45.433594 L 125.089844 45.433594 L 125.089844 46.273438 L 122.664062 46.273438 L 122.664062 47.914062 L 124.933594 47.914062 L 124.933594 48.742188 L 122.664062 48.742188 L 122.664062 50.632812 L 125.089844 50.632812 Z M 127.378906 48.242188 L 128.066406 48.242188 C 128.523438 48.242188 128.855469 48.15625 129.0625 47.988281 C 129.269531 47.816406 129.371094 47.5625 129.371094 47.230469 C 129.371094 46.886719 129.261719 46.644531 129.039062 46.496094 C 128.816406 46.347656 128.480469 46.273438 128.03125 46.273438 L 127.378906 46.273438 Z M 127.378906 49.0625 L 127.378906 51.472656 L 126.394531 51.472656 L 126.394531 45.433594 L 128.097656 45.433594 C 128.878906 45.433594 129.453125 45.582031 129.828125 45.875 C 130.203125 46.164062 130.390625 46.605469 130.390625 47.195312 C 130.390625 47.945312 129.996094 48.484375 129.214844 48.800781 L 130.921875 51.472656 L 129.796875 51.472656 L 128.355469 49.0625 Z M 135.539062 51.472656 L 134.9375 49.796875 L 132.628906 49.796875 L 132.039062 51.472656 L 131 51.472656 L 133.257812 45.410156 L 134.332031 45.410156 L 136.585938 51.472656 Z M 134.675781 48.945312 L 134.113281 47.300781 C 134.070312 47.191406 134.015625 47.019531 133.941406 46.78125 C 133.867188 46.542969 133.816406 46.371094 133.789062 46.257812 C 133.714844 46.597656 133.605469 46.96875 133.464844 47.371094 L 132.917969 48.945312 Z M 141.378906 47.261719 C 141.378906 47.890625 141.171875 48.375 140.761719 48.710938 C 140.347656 49.046875 139.761719 49.214844 139 49.214844 L 138.371094 49.214844 L 138.371094 51.472656 L 137.386719 51.472656 L 137.386719 45.433594 L 139.121094 45.433594 C 139.875 45.433594 140.441406 45.589844 140.816406 45.898438 C 141.191406 46.207031 141.378906 46.660156 141.378906 47.261719 Z M 138.371094 48.386719 L 138.894531 48.386719 C 139.402344 48.386719 139.773438 48.296875 140.011719 48.121094 C 140.246094 47.945312 140.363281 47.667969 140.363281 47.296875 C 140.363281 46.949219 140.257812 46.691406 140.046875 46.519531 C 139.835938 46.351562 139.503906 46.265625 139.054688 46.265625 L 138.371094 46.265625 Z M 142.585938 51.472656 L 142.585938 45.433594 L 143.570312 45.433594 L 143.570312 51.472656 Z M 145.164062 51.472656 L 145.164062 45.433594 L 146.152344 45.433594 L 146.152344 51.472656 Z M 73.734375 60.105469 L 73.734375 54.070312 L 74.722656 54.070312 L 74.722656 60.105469 Z M 84.082031 60.105469 L 83.007812 60.105469 L 81.984375 56.503906 C 81.941406 56.347656 81.886719 56.121094 81.820312 55.824219 C 81.753906 55.53125 81.714844 55.324219 81.699219 55.207031 C 81.671875 55.386719 81.625 55.613281 81.566406 55.894531 C 81.503906 56.175781 81.453125 56.382812 81.410156 56.523438 L 80.410156 60.105469 L 79.339844 60.105469 L 78.558594 57.082031 L 77.765625 54.070312 L 78.773438 54.070312 L 79.636719 57.585938 C 79.769531 58.152344 79.867188 58.648438 79.925781 59.082031 C 79.953125 58.847656 80 58.585938 80.058594 58.296875 C 80.121094 58.007812 80.175781 57.773438 80.226562 57.59375 L 81.207031 54.070312 L 82.1875 54.070312 L 83.191406 57.609375 C 83.289062 57.9375 83.390625 58.429688 83.5 59.082031 C 83.539062 58.6875 83.640625 58.1875 83.796875 57.578125 L 84.65625 54.070312 L 85.652344 54.070312 Z M 89.988281 58.46875 C 89.988281 59.003906 89.796875 59.425781 89.40625 59.730469 C 89.019531 60.039062 88.484375 60.1875 87.800781 60.1875 C 87.117188 60.1875 86.558594 60.082031 86.125 59.871094 L 86.125 58.933594 C 86.398438 59.066406 86.691406 59.167969 87 59.242188 C 87.3125 59.316406 87.597656 59.351562 87.867188 59.351562 C 88.257812 59.351562 88.546875 59.277344 88.730469 59.128906 C 88.917969 58.980469 89.011719 58.785156 89.011719 58.535156 C 89.011719 58.308594 88.925781 58.117188 88.753906 57.960938 C 88.582031 57.800781 88.230469 57.617188 87.695312 57.402344 C 87.144531 57.179688 86.757812 56.925781 86.53125 56.640625 C 86.304688 56.351562 86.195312 56.007812 86.195312 55.609375 C 86.195312 55.101562 86.371094 54.707031 86.730469 54.417969 C 87.089844 54.128906 87.570312 53.984375 88.171875 53.984375 C 88.75 53.984375 89.324219 54.109375 89.898438 54.363281 L 89.582031 55.167969 C 89.046875 54.941406 88.566406 54.828125 88.144531 54.828125 C 87.828125 54.828125 87.585938 54.898438 87.417969 55.039062 C 87.253906 55.179688 87.171875 55.359375 87.171875 55.589844 C 87.171875 55.746094 87.207031 55.882812 87.273438 55.992188 C 87.339844 56.105469 87.445312 56.210938 87.597656 56.308594 C 87.75 56.40625 88.019531 56.539062 88.414062 56.699219 C 88.859375 56.886719 89.183594 57.058594 89.390625 57.214844 C 89.597656 57.378906 89.746094 57.558594 89.84375 57.757812 C 89.941406 57.960938 89.988281 58.195312 89.988281 58.46875 Z M 95.148438 55.894531 C 95.148438 56.523438 94.941406 57.007812 94.53125 57.34375 C 94.117188 57.679688 93.53125 57.847656 92.765625 57.847656 L 92.140625 57.847656 L 92.140625 60.105469 L 91.15625 60.105469 L 91.15625 54.070312 L 92.890625 54.070312 C 93.644531 54.070312 94.210938 54.222656 94.585938 54.53125 C 94.960938 54.839844 95.148438 55.296875 95.148438 55.894531 Z M 92.140625 57.019531 L 92.664062 57.019531 C 93.171875 57.019531 93.542969 56.929688 93.777344 56.753906 C 94.015625 56.578125 94.132812 56.304688 94.132812 55.929688 C 94.132812 55.582031 94.027344 55.324219 93.816406 55.152344 C 93.605469 54.984375 93.273438 54.898438 92.824219 54.898438 L 92.140625 54.898438 Z M 101.710938 57.078125 C 101.710938 58.0625 101.464844 58.828125 100.976562 59.371094 C 100.484375 59.917969 99.789062 60.1875 98.890625 60.1875 C 97.980469 60.1875 97.277344 59.917969 96.789062 59.378906 C 96.300781 58.835938 96.058594 58.070312 96.058594 57.074219 C 96.058594 56.074219 96.304688 55.308594 96.792969 54.777344 C 97.285156 54.242188 97.984375 53.976562 98.898438 53.976562 C 99.792969 53.976562 100.488281 54.246094 100.976562 54.789062 C 101.46875 55.332031 101.710938 56.09375 101.710938 57.078125 Z M 97.105469 57.078125 C 97.105469 57.820312 97.257812 58.382812 97.554688 58.769531 C 97.855469 59.152344 98.300781 59.34375 98.890625 59.34375 C 99.476562 59.34375 99.917969 59.152344 100.214844 58.773438 C 100.515625 58.394531 100.664062 57.828125 100.664062 57.078125 C 100.664062 56.339844 100.515625 55.777344 100.21875 55.394531 C 99.925781 55.011719 99.484375 54.820312 98.898438 54.820312 C 98.304688 54.820312 97.859375 55.011719 97.558594 55.394531 C 97.257812 55.777344 97.105469 56.339844 97.105469 57.078125 Z M 105.617188 60.105469 L 103.867188 55.0625 L 103.835938 55.0625 C 103.882812 55.8125 103.90625 56.515625 103.90625 57.171875 L 103.90625 60.105469 L 103.011719 60.105469 L 103.011719 54.070312 L 104.402344 54.070312 L 106.078125 58.871094 L 106.101562 58.871094 L 107.828125 54.070312 L 109.222656 54.070312 L 109.222656 60.105469 L 108.273438 60.105469 L 108.273438 57.121094 C 108.273438 56.820312 108.28125 56.429688 108.296875 55.945312 C 108.308594 55.464844 108.324219 55.171875 108.335938 55.074219 L 108.300781 55.074219 L 106.488281 60.105469 Z M 114.554688 60.105469 L 113.949219 58.429688 L 111.644531 58.429688 L 111.054688 60.105469 L 110.015625 60.105469 L 112.269531 54.042969 L 113.34375 54.042969 L 115.601562 60.105469 Z M 113.691406 57.578125 L 113.125 55.933594 C 113.082031 55.824219 113.027344 55.652344 112.953125 55.414062 C 112.878906 55.179688 112.832031 55.003906 112.804688 54.894531 C 112.730469 55.234375 112.621094 55.601562 112.476562 56.003906 L 111.933594 57.578125 Z M 118.699219 56.832031 L 120.917969 56.832031 L 120.917969 59.863281 C 120.554688 59.980469 120.207031 60.066406 119.875 60.113281 C 119.539062 60.164062 119.175781 60.1875 118.789062 60.1875 C 117.875 60.1875 117.171875 59.917969 116.675781 59.378906 C 116.179688 58.835938 115.933594 58.074219 115.933594 57.089844 C 115.933594 56.117188 116.210938 55.355469 116.769531 54.808594 C 117.328125 54.257812 118.097656 53.984375 119.078125 53.984375 C 119.707031 53.984375 120.304688 54.105469 120.867188 54.347656 L 120.523438 55.167969 C 120.03125 54.941406 119.542969 54.828125 119.054688 54.828125 C 118.410156 54.828125 117.902344 55.03125 117.527344 55.4375 C 117.152344 55.839844 116.964844 56.394531 116.964844 57.09375 C 116.964844 57.832031 117.132812 58.394531 117.472656 58.777344 C 117.808594 59.160156 118.292969 59.351562 118.925781 59.351562 C 119.246094 59.351562 119.585938 59.3125 119.949219 59.234375 L 119.949219 57.679688 L 118.699219 57.679688 Z M 126.109375 60.105469 L 125.507812 58.429688 L 123.199219 58.429688 L 122.609375 60.105469 L 121.570312 60.105469 L 123.828125 54.042969 L 124.902344 54.042969 L 127.160156 60.105469 Z M 125.246094 57.578125 L 124.683594 55.933594 C 124.640625 55.824219 124.585938 55.652344 124.511719 55.414062 C 124.4375 55.179688 124.386719 55.003906 124.359375 54.894531 C 124.285156 55.234375 124.175781 55.601562 124.035156 56.003906 L 123.488281 57.578125 Z M 132.984375 60.105469 L 131.773438 60.105469 L 128.808594 55.296875 L 128.773438 55.296875 L 128.792969 55.5625 C 128.832031 56.074219 128.851562 56.542969 128.851562 56.96875 L 128.851562 60.105469 L 127.957031 60.105469 L 127.957031 54.070312 L 129.152344 54.070312 L 132.113281 58.855469 L 132.136719 58.855469 C 132.128906 58.789062 132.117188 58.5625 132.105469 58.160156 C 132.085938 57.765625 132.078125 57.453125 132.078125 57.230469 L 132.078125 54.070312 L 132.984375 54.070312 Z M 134.574219 60.105469 L 134.574219 54.070312 L 135.5625 54.070312 L 135.5625 60.105469 Z M 140.898438 60.105469 L 140.296875 58.429688 L 137.988281 58.429688 L 137.398438 60.105469 L 136.359375 60.105469 L 138.617188 54.042969 L 139.691406 54.042969 L 141.949219 60.105469 Z M 140.035156 57.578125 L 139.472656 55.933594 C 139.429688 55.824219 139.375 55.652344 139.300781 55.414062 C 139.226562 55.179688 139.175781 55.003906 139.148438 54.894531 C 139.074219 55.234375 138.964844 55.601562 138.824219 56.003906 L 138.277344 57.578125 Z M 74.722656 65.507812 L 75.40625 65.507812 C 75.867188 65.507812 76.199219 65.425781 76.40625 65.253906 C 76.613281 65.082031 76.714844 64.832031 76.714844 64.496094 C 76.714844 64.15625 76.605469 63.910156 76.382812 63.761719 C 76.160156 63.613281 75.820312 63.539062 75.375 63.539062 L 74.722656 63.539062 Z M 74.722656 66.328125 L 74.722656 68.738281 L 73.734375 68.738281 L 73.734375 62.703125 L 75.441406 62.703125 C 76.21875 62.703125 76.796875 62.847656 77.167969 63.140625 C 77.542969 63.433594 77.730469 63.875 77.730469 64.460938 C 77.730469 65.214844 77.339844 65.75 76.558594 66.070312 L 78.261719 68.738281 L 77.140625 68.738281 L 75.695312 66.328125 Z M 84.496094 65.714844 C 84.496094 66.695312 84.25 67.460938 83.757812 68.007812 C 83.269531 68.550781 82.570312 68.824219 81.671875 68.824219 C 80.761719 68.824219 80.0625 68.550781 79.574219 68.011719 C 79.085938 67.46875 78.839844 66.703125 78.839844 65.707031 C 78.839844 64.710938 79.085938 63.945312 79.578125 63.410156 C 80.070312 62.875 80.769531 62.609375 81.679688 62.609375 C 82.578125 62.609375 83.273438 62.878906 83.761719 63.421875 C 84.25 63.964844 84.496094 64.730469 84.496094 65.714844 Z M 79.890625 65.710938 C 79.890625 66.453125 80.039062 67.019531 80.339844 67.402344 C 80.640625 67.785156 81.085938 67.976562 81.671875 67.976562 C 82.257812 67.976562 82.699219 67.789062 83 67.410156 C 83.296875 67.027344 83.445312 66.464844 83.445312 65.710938 C 83.445312 64.972656 83.296875 64.410156 83.003906 64.027344 C 82.707031 63.648438 82.265625 63.457031 81.679688 63.457031 C 81.089844 63.457031 80.644531 63.648438 80.339844 64.027344 C 80.042969 64.410156 79.890625 64.972656 79.890625 65.710938 Z M 89.503906 68.738281 L 85.183594 68.738281 L 85.183594 68.054688 L 88.226562 63.546875 L 85.269531 63.546875 L 85.269531 62.703125 L 89.417969 62.703125 L 89.417969 63.394531 L 86.367188 67.894531 L 89.503906 67.894531 Z M 96.140625 68.738281 L 95.070312 68.738281 L 94.042969 65.140625 C 94 64.984375 93.945312 64.753906 93.878906 64.460938 C 93.8125 64.164062 93.773438 63.957031 93.757812 63.84375 C 93.730469 64.019531 93.6875 64.246094 93.625 64.527344 C 93.5625 64.808594 93.511719 65.019531 93.46875 65.15625 L 92.46875 68.738281 L 91.398438 68.738281 L 90.617188 65.714844 L 89.824219 62.703125 L 90.832031 62.703125 L 91.695312 66.222656 C 91.828125 66.785156 91.925781 67.285156 91.984375 67.714844 C 92.015625 67.480469 92.058594 67.21875 92.121094 66.929688 C 92.179688 66.640625 92.238281 66.40625 92.285156 66.226562 L 93.269531 62.703125 L 94.246094 62.703125 L 95.253906 66.246094 C 95.351562 66.574219 95.453125 67.0625 95.558594 67.714844 C 95.601562 67.320312 95.699219 66.820312 95.855469 66.210938 L 96.714844 62.703125 L 97.714844 62.703125 Z M 103.839844 65.714844 C 103.839844 66.695312 103.59375 67.460938 103.105469 68.007812 C 102.613281 68.550781 101.917969 68.824219 101.019531 68.824219 C 100.109375 68.824219 99.40625 68.550781 98.917969 68.011719 C 98.429688 67.46875 98.1875 66.703125 98.1875 65.707031 C 98.1875 64.710938 98.433594 63.945312 98.921875 63.410156 C 99.414062 62.875 100.113281 62.609375 101.027344 62.609375 C 101.921875 62.609375 102.617188 62.878906 103.105469 63.421875 C 103.597656 63.964844 103.839844 64.730469 103.839844 65.714844 Z M 99.234375 65.710938 C 99.234375 66.453125 99.386719 67.019531 99.683594 67.402344 C 99.984375 67.785156 100.429688 67.976562 101.019531 67.976562 C 101.605469 67.976562 102.046875 67.789062 102.34375 67.410156 C 102.640625 67.027344 102.792969 66.464844 102.792969 65.710938 C 102.792969 64.972656 102.644531 64.410156 102.347656 64.027344 C 102.054688 63.648438 101.613281 63.457031 101.027344 63.457031 C 100.433594 63.457031 99.988281 63.648438 99.6875 64.027344 C 99.386719 64.410156 99.234375 64.972656 99.234375 65.710938 Z M 104.375 70.421875 C 104.105469 70.421875 103.878906 70.386719 103.699219 70.316406 L 103.699219 69.488281 C 103.929688 69.546875 104.128906 69.574219 104.300781 69.574219 C 104.839844 69.574219 105.109375 69.234375 105.109375 68.550781 L 105.109375 62.703125 L 106.101562 62.703125 L 106.101562 68.519531 C 106.101562 69.132812 105.953125 69.605469 105.660156 69.933594 C 105.367188 70.257812 104.9375 70.421875 104.375 70.421875 Z M 112.394531 62.703125 L 112.394531 66.609375 C 112.394531 67.054688 112.296875 67.445312 112.105469 67.78125 C 111.914062 68.113281 111.636719 68.371094 111.277344 68.550781 C 110.914062 68.734375 110.484375 68.824219 109.980469 68.824219 C 109.230469 68.824219 108.648438 68.625 108.234375 68.226562 C 107.820312 67.832031 107.609375 67.289062 107.609375 66.59375 L 107.609375 62.703125 L 108.601562 62.703125 L 108.601562 66.519531 C 108.601562 67.019531 108.714844 67.386719 108.945312 67.621094 C 109.179688 67.859375 109.535156 67.976562 110.011719 67.976562 C 110.941406 67.976562 111.40625 67.488281 111.40625 66.511719 L 111.40625 62.703125 Z M 121.042969 65.664062 C 121.042969 66.660156 120.765625 67.421875 120.214844 67.949219 C 119.660156 68.476562 118.863281 68.738281 117.824219 68.738281 L 116.136719 68.738281 L 116.136719 62.703125 L 118 62.703125 C 118.960938 62.703125 119.707031 62.960938 120.242188 63.480469 C 120.777344 63.996094 121.042969 64.726562 121.042969 65.664062 Z M 120.003906 65.699219 C 120.003906 64.253906 119.328125 63.53125 117.976562 63.53125 L 117.121094 63.53125 L 117.121094 67.910156 L 117.824219 67.910156 C 119.277344 67.910156 120.003906 67.171875 120.003906 65.699219 Z M 126.046875 68.738281 L 121.730469 68.738281 L 121.730469 68.054688 L 124.769531 63.546875 L 121.8125 63.546875 L 121.8125 62.703125 L 125.964844 62.703125 L 125.964844 63.394531 L 122.910156 67.894531 L 126.046875 67.894531 Z M 127.117188 68.738281 L 127.117188 62.703125 L 128.101562 62.703125 L 128.101562 68.738281 Z M 133.109375 68.738281 L 129.695312 68.738281 L 129.695312 62.703125 L 133.109375 62.703125 L 133.109375 63.539062 L 130.683594 63.539062 L 130.683594 65.179688 L 132.957031 65.179688 L 132.957031 66.007812 L 130.683594 66.007812 L 130.683594 67.902344 L 133.109375 67.902344 Z M 136.980469 63.464844 C 136.414062 63.464844 135.96875 63.664062 135.644531 64.066406 C 135.320312 64.46875 135.15625 65.023438 135.15625 65.730469 C 135.15625 66.46875 135.3125 67.027344 135.628906 67.410156 C 135.9375 67.789062 136.390625 67.976562 136.980469 67.976562 C 137.238281 67.976562 137.488281 67.953125 137.726562 67.902344 C 137.964844 67.851562 138.214844 67.785156 138.472656 67.707031 L 138.472656 68.554688 C 138 68.734375 137.460938 68.824219 136.863281 68.824219 C 135.980469 68.824219 135.300781 68.554688 134.828125 68.019531 C 134.355469 67.484375 134.117188 66.71875 134.117188 65.722656 C 134.117188 65.09375 134.230469 64.546875 134.460938 64.074219 C 134.691406 63.605469 135.023438 63.242188 135.460938 62.996094 C 135.894531 62.742188 136.40625 62.617188 136.992188 62.617188 C 137.609375 62.617188 138.179688 62.746094 138.699219 63.007812 L 138.347656 63.828125 C 138.140625 63.730469 137.925781 63.644531 137.699219 63.574219 C 137.472656 63.5 137.234375 63.464844 136.980469 63.464844 Z M 144.378906 68.738281 L 143.234375 68.738281 L 141.339844 66.003906 L 140.757812 66.480469 L 140.757812 68.738281 L 139.773438 68.738281 L 139.773438 62.703125 L 140.757812 62.703125 L 140.757812 65.585938 C 141.027344 65.253906 141.296875 64.9375 141.5625 64.628906 L 143.191406 62.703125 L 144.316406 62.703125 C 143.261719 63.941406 142.507812 64.824219 142.050781 65.347656 Z M 148.917969 68.738281 L 148.316406 67.066406 L 146.007812 67.066406 L 145.417969 68.738281 L 144.378906 68.738281 L 146.636719 62.675781 L 147.710938 62.675781 L 149.964844 68.738281 Z M 148.054688 66.210938 L 147.492188 64.566406 C 147.449219 64.457031 147.390625 64.285156 147.320312 64.046875 C 147.246094 63.8125 147.195312 63.636719 147.167969 63.527344 C 147.09375 63.867188 146.984375 64.234375 146.84375 64.636719 L 146.296875 66.210938 Z M 148.054688 66.210938 "/>
</g>

<!-- Contact Info Section -->
<g id="contact-info" transform="translate(0, 85)">
  <!-- Home Icon & "1 piętro" -->
  <circle cx="12" cy="10" r="4" fill="#20B2AA"/>
  <path d="M 10 10 L 12 8.5 L 14 10 L 14 11.5 L 13.2 11.5 L 13.2 11 L 10.8 11 L 10.8 11.5 L 10 11.5 Z" fill="white"/>
  <text x="18" y="12" font-family="Arial, sans-serif" font-size="6" font-weight="bold" fill="#0F2A3D">1 piętro</text>
  
  <!-- Vertical separator -->
  <line x1="47" y1="3" x2="47" y2="17" stroke="#FFA500" stroke-width="1"/>
  
  <!-- Phone Icon & Number -->
  <circle cx="59" cy="10" r="4" fill="#20B2AA"/>
  <path d="M 56.5 8.5 C 56.2 8.5 56 8.7 56 9 L 56 9.8 C 56 10.1 56.2 10.3 56.5 10.3 L 57.2 10.3 L 60.8 10.3 L 61.5 10.3 C 61.8 10.3 62 10.1 62 9.8 L 62 9 C 62 8.7 61.8 8.5 61.5 8.5 Z M 57.2 10.3 C 57.2 11 57.7 11.5 58.4 11.5 L 59.6 11.5 C 60.3 11.5 60.8 11 60.8 10.3" fill="white" stroke="none"/>
  <circle cx="56.8" cy="8.8" r="0.3" fill="white"/>
  <circle cx="61.2" cy="8.8" r="0.3" fill="white"/>
  <text x="65" y="12" font-family="Arial, sans-serif" font-size="6" font-weight="bold" fill="#0F2A3D">516 577 126</text>
  
  <!-- Vertical separator -->
  <line x1="106" y1="3" x2="106" y2="17" stroke="#FFA500" stroke-width="1"/>
  
  <!-- Globe Icon & Website -->
  <circle cx="116" cy="10" r="4" fill="#20B2AA"/>
  <circle cx="116" cy="10" r="2.8" fill="none" stroke="white" stroke-width="0.6"/>
  <path d="M 113.2 10 Q 116 8.2 118.8 10 M 113.2 10 Q 116 11.8 118.8 10" fill="none" stroke="white" stroke-width="0.6"/>
  <line x1="116" y1="7.2" x2="116" y2="12.8" stroke="white" stroke-width="0.6"/>
  <text x="122" y="12" font-family="Arial, sans-serif" font-size="6" font-weight="bold" fill="#0F2A3D">sensuskielce.pl</text>
</g>

</g>
</svg>
