<?xml version="1.0" encoding="UTF-8"?>
<svg version="1.1" xmlns="http://www.w3.org/2000/svg" width="208" height="199">
<path d="M0 0 C68.64 0 137.28 0 208 0 C208 65.67 208 131.34 208 199 C139.36 199 70.72 199 0 199 C0 133.33 0 67.66 0 0 Z " fill="#FDFDFC" transform="translate(0,0)"/>
<path d="M0 0 C6.01795973 2.3251208 8.36302172 10.32588391 11 15.8125 C20.26337842 34.82010785 36.07805707 50.13607611 55.75 58.0625 C64.75094319 60.79878673 73.38407266 61.48256651 82.75 61.0625 C79.6757552 59.01300346 77.41419211 58.3311876 73.875 57.375 C63.06399457 54.112436 52.1388624 48.8791619 44.75 40.0625 C43.625 36.625 43.625 36.625 43.75 34.0625 C44.75 33.0625 44.75 33.0625 47.85546875 32.81640625 C51.42117147 33.04172147 53.79704227 33.74371532 57.03857422 35.14526367 C68.20399713 39.8606009 79.60454738 39.76766909 91.5168457 39.74780273 C106.97292287 39.76659706 121.40424609 42.71674609 132.75 54.0625 C141.52088009 64.8618876 145.78877211 76.13182397 144.75 90.0625 C144.11359209 93.53934618 143.46528679 96.95194261 141.75 100.0625 C139.921875 101.0625 139.921875 101.0625 137.75 101.0625 C135.59375 99.5859375 135.59375 99.5859375 133.25 97.4375 C123.5736424 89.26412694 113.24850733 86.95095926 100.90625 86.88671875 C99.16665486 86.86349861 97.42707152 86.83938042 95.6875 86.81445312 C92.9803907 86.77959032 90.27371109 86.75011864 87.56640625 86.73657227 C65.90310873 86.60734004 48.4389837 81.57601096 31.75 67.0625 C30.739375 66.299375 29.72875 65.53625 28.6875 64.75 C14.24297738 51.53479845 -1.90192591 27.56153866 -3.453125 7.42578125 C-3.5 4.9375 -3.5 4.9375 -3.25 1.0625 C-2.25 0.0625 -2.25 0.0625 0 0 Z " fill="#C98147" transform="translate(8.25,91.9375)"/>
<path d="M0 0 C3.72025726 0.08267238 5.51502959 0.56745882 8.3125 3.0625 C9.199375 4.031875 10.08625 5.00125 11 6 C22.6156415 17.25194235 35.35544381 23.01258561 51.625 23.5 C60.30058472 23.24537068 68.5271938 21.25945202 76 16.75 C79.06863403 14.95996349 80.52734379 14.40468751 84 15 C86 17 86 17 86.5625 19.625 C85.6782783 24.93033022 83.14374241 27.66388355 79 31 C72.84631463 34.75631552 66.04967967 38.40049285 59 40 C59.58030449 46.18991451 63.14758689 51.14758689 67.4375 55.4375 C71.65212628 58.00739407 75.06883401 58.07390206 79.9375 57.6875 C84.37319514 57.59366799 86.52254811 59.54062624 89.65234375 62.4921875 C92.58396579 65.7722052 92.15488023 68.74079356 92 73 C91.67 73.33 91.34 73.66 91 74 C84.86574074 73.30555556 84.86574074 73.30555556 81.875 72.25 C79.82699418 71.76776706 79.82699418 71.76776706 77.80078125 73.45703125 C71.93932642 76.68614514 64.14888673 75.90584413 57.86328125 74.09765625 C55.51399945 73.15593273 53.24830406 72.160415 51 71 C50.28880934 76.44511125 50.28880934 76.44511125 52.55859375 81.265625 C53.19925781 82.04421875 53.83992188 82.8228125 54.5 83.625 C58.62799002 88.98721734 58.6664069 93.38397778 58.44140625 99.99609375 C58 103 58 103 56 106 C52.875 106.1875 52.875 106.1875 50 106 C49.74605469 105.45730469 49.49210937 104.91460937 49.23046875 104.35546875 C48.88628906 103.64003906 48.54210937 102.92460937 48.1875 102.1875 C47.85105469 101.47980469 47.51460937 100.77210938 47.16796875 100.04296875 C46.08586675 97.94242539 46.08586675 97.94242539 44.36328125 96.36328125 C43.91339844 95.91339844 43.46351563 95.46351563 43 95 C43 94.34 43 93.68 43 93 C42.42121094 92.77054687 41.84242188 92.54109375 41.24609375 92.3046875 C33.04246486 87.53944915 29.11236349 76.46136843 26 68 C25.69191406 67.23300781 25.38382813 66.46601562 25.06640625 65.67578125 C22.72278796 59.78870181 21.96311828 54.55471363 21.91430664 48.2409668 C21.75241082 39.78316706 20.07219552 34.98451039 14 29 C-1.32784272 12.70510096 -1.32784272 12.70510096 -2.5 4.5 C-2 2 -2 2 0 0 Z " fill="#1F506B" transform="translate(106,33)"/>
<path d="M0 0 C8.25726871 6.37745206 14.7348987 15.31948252 16.31640625 25.7890625 C17.24172928 37.22666188 15.37668533 46.97740122 8.01171875 56.0078125 C0.70095516 63.68916779 -6.5256237 66.89839961 -17.05859375 67.2265625 C-26.07756668 67.00265553 -32.40607247 65.23994472 -39.05859375 59.0390625 C-46.40655622 51.08248092 -48.18544202 43.04217717 -48.0859375 32.40625 C-47.26115256 24.99119312 -43.40792349 19.86852629 -37.68359375 15.2890625 C-31.99001804 11.47177878 -26.56226803 9.96155281 -19.68359375 10.7890625 C-12.61563605 12.48962375 -7.82919907 16.0788242 -3.30859375 21.7890625 C-0.56539458 27.03341385 -0.95342944 33.06575439 -1.68359375 38.7890625 C-4.06792885 43.82265883 -7.68352948 47.28903037 -12.68359375 49.7890625 C-21.69204209 50.81944058 -21.69204209 50.81944058 -25.70703125 48.7421875 C-27.82963139 46.98198251 -29.44603716 45.26417568 -30.68359375 42.7890625 C-31.25470852 35.82146228 -31.25470852 35.82146228 -29.05859375 31.8515625 C-26.23958387 29.40347497 -24.36211709 29.03987091 -20.68359375 28.7890625 C-19.99609375 30.6015625 -19.99609375 30.6015625 -19.68359375 32.7890625 C-20.68359375 33.7890625 -21.68359375 34.7890625 -22.68359375 35.7890625 C-23.10038672 38.33137097 -23.10038672 38.33137097 -22.68359375 40.7890625 C-22.02359375 41.4490625 -21.36359375 42.1090625 -20.68359375 42.7890625 C-16.68167539 42.7149529 -14.40731816 42.36433062 -11.24609375 39.8515625 C-9.00967396 35.46817971 -8.89623143 31.61662741 -9.68359375 26.7890625 C-11.91805752 22.89944038 -14.56719766 20.56659718 -18.68359375 18.7890625 C-24.35040962 18.24936575 -27.77209519 18.66356342 -32.68359375 21.7890625 C-36.71021717 25.12540762 -39.20903716 28.80760917 -40.04296875 34.046875 C-40.42814095 40.87298226 -38.67329708 46.24356576 -34.68359375 51.7890625 C-28.3041652 57.90785292 -22.85004132 59.22229131 -14.11328125 59.125 C-7.97496258 58.52375239 -3.22030828 56.30965385 1.16015625 51.95703125 C6.64580232 45.14030929 8.94989532 38.32639938 8.66015625 29.5859375 C7.61888626 21.11378626 3.31512477 13.76416402 -2.68359375 7.7890625 C-10.06654397 2.34480064 -18.549612 -0.03478683 -27.68359375 0.7890625 C-36.72440453 2.24725779 -44.77659152 6.64826301 -50.44140625 13.9453125 C-55.75110391 21.82637318 -58.97806957 31.18700138 -57.68359375 40.7890625 C-55.74954274 49.79919234 -52.38538358 56.60560107 -46.68359375 63.7890625 C-45.68103782 65.12047505 -44.68019782 66.45318896 -43.68359375 67.7890625 C-50.27950099 66.63111434 -54.97695386 60.93293251 -58.93359375 55.8515625 C-59.8723811 54.51263627 -60.78998637 53.15855547 -61.68359375 51.7890625 C-62.09867188 51.16257813 -62.51375 50.53609375 -62.94140625 49.890625 C-67.41459634 42.22676785 -66.27631012 33.55709546 -64.37109375 25.1953125 C-61.04155678 13.5419331 -53.92916661 4.12541107 -43.74609375 -2.46484375 C-29.88951414 -10.03567656 -13.04287046 -8.49984817 0 0 Z " fill="#5C9FA0" transform="translate(95.68359375,53.2109375)"/>
<path d="M0 0 C5.10158987 5.37735148 6.47895068 10.21800971 6.31640625 17.5 C5.67305989 22.58323051 3.26976484 25.7953513 -0.4375 29.3125 C-5.51917537 32.65896914 -9.90694711 33.72093374 -16 33 C-22.04871379 31.22710113 -25.53316477 28.11881711 -29 23 C-30.84307372 17.47077884 -31.37492193 10.95441702 -28.87109375 5.57421875 C-25.47673517 0.86820203 -21.45875674 -2.54955363 -16.0625 -4.8125 C-9.87299622 -5.37518216 -4.88542529 -3.63368697 0 0 Z " fill="#1F506B" transform="translate(162,19)"/>
<path d="M0 0 C1.32 0 2.64 0 4 0 C5.53515625 1.984375 5.53515625 1.984375 7.0625 4.75 C9.82491783 9.37779246 12.80187819 13.19145123 16.5 17.0625 C21.24119881 22.04507774 25.1898509 27.28477635 29 33 C29.99116779 34.33991201 30.98847733 35.67538698 32 37 C19.41145112 32.45842195 10.03842302 20.91311045 3 10 C2.55140625 9.31164062 2.1028125 8.62328125 1.640625 7.9140625 C0.5 6.0625 0.5 6.0625 -1 3 C-0.67 2.01 -0.34 1.02 0 0 Z " fill="#C77E48" transform="translate(23,104)"/>
<path d="M0 0 C1 3 1 3 0.25 5.125 C-1 7 -1 7 -4 8 C-3.67 6.35 -3.34 4.7 -3 3 C-2.01 2.67 -1.02 2.34 0 2 C0 1.34 0 0.68 0 0 Z " fill="#64A5A6" transform="translate(93,79)"/>
</svg>
