<?xml version="1.0" encoding="UTF-8"?>
<!DOCTYPE svg PUBLIC "-//W3C//DTD SVG 1.1//EN" "http://www.w3.org/Graphics/SVG/1.1/DTD/svg11.dtd">
<svg xmlns="http://www.w3.org/2000/svg" version="1.1" width="348px" height="280px" style="shape-rendering:geometricPrecision; text-rendering:geometricPrecision; image-rendering:optimizeQuality; fill-rule:evenodd; clip-rule:evenodd" xmlns:xlink="http://www.w3.org/1999/xlink">
<g><path style="opacity:1" fill="#fdfdfc" d="M -0.5,-0.5 C 115.5,-0.5 231.5,-0.5 347.5,-0.5C 347.5,92.8333 347.5,186.167 347.5,279.5C 231.5,279.5 115.5,279.5 -0.5,279.5C -0.5,186.167 -0.5,92.8333 -0.5,-0.5 Z"/></g>
<g><path style="opacity:1" fill="#1f506a" d="M 214.5,11.5 C 230.929,14.0195 237.095,23.3528 233,39.5C 226.24,49.0668 217.406,51.5668 206.5,47C 195.84,36.2918 195.84,25.6251 206.5,15C 209.158,13.522 211.825,12.3554 214.5,11.5 Z"/></g>
<g><path style="opacity:1" fill="#1f506a" d="M 172.5,30.5 C 174.655,30.372 176.655,30.872 178.5,32C 200.162,56.0657 225.329,60.5657 254,45.5C 258.206,46.5282 259.539,49.1948 258,53.5C 251.231,62.1434 242.398,67.6434 231.5,70C 231.775,78.8264 236.109,85.1597 244.5,89C 249.727,87.7099 254.727,88.3766 259.5,91C 263.966,94.0985 265.466,98.2652 264,103.5C 260.321,104.898 256.988,104.231 254,101.5C 250.08,104.706 245.58,106.039 240.5,105.5C 234.648,104.887 228.981,103.721 223.5,102C 222.398,104.401 222.231,106.901 223,109.5C 224.944,113.11 227.277,116.443 230,119.5C 230.667,124.167 230.667,128.833 230,133.5C 228.06,136.608 225.394,137.275 222,135.5C 221,132.833 220,130.167 219,127.5C 201.749,111.784 193.416,92.1177 194,68.5C 187.333,60.5 180.667,52.5 174,44.5C 170.296,39.9977 169.796,35.331 172.5,30.5 Z"/></g>
<g><path style="opacity:1" fill="#5c9fa0" d="M 134.5,43.5 C 166.239,45.3964 180.406,62.0631 177,93.5C 170.254,111.962 157.087,119.795 137.5,117C 119.92,110.69 112.42,98.1896 115,79.5C 123.432,61.5205 136.266,57.3538 153.5,67C 160.973,74.7657 162.473,83.599 158,93.5C 152.996,100.023 146.496,102.19 138.5,100C 132.397,96.9596 130.231,92.1263 132,85.5C 133.816,81.2359 136.983,79.4026 141.5,80C 142.946,82.4932 142.279,84.3265 139.5,85.5C 138.056,93.2186 141.056,95.7186 148.5,93C 154.178,87.5721 155.012,81.4054 151,74.5C 142.771,66.6444 134.438,66.6444 126,74.5C 118.15,88.959 121.317,100.459 135.5,109C 156.978,113.528 168.978,104.861 171.5,83C 169.862,65.0589 160.196,54.3922 142.5,51C 118.792,51.5371 105.792,63.7038 103.5,87.5C 104.407,99.745 109.407,109.912 118.5,118C 118,118.167 117.5,118.333 117,118.5C 96.365,105.351 91.365,87.6843 102,65.5C 109.527,53.1166 120.361,45.7833 134.5,43.5 Z"/></g>
<g><path style="opacity:1" fill="#c98145" d="M 72.5,89.5 C 75.3245,89.0807 77.4912,90.0807 79,92.5C 88.5903,118.088 105.757,136.588 130.5,148C 140.668,151.486 151.001,152.153 161.5,150C 145.553,147.276 131.72,140.443 120,129.5C 117.245,122.921 119.412,120.755 126.5,123C 133.918,126.105 141.585,128.439 149.5,130C 160.833,130.333 172.167,130.667 183.5,131C 212.287,140.084 223.287,159.25 216.5,188.5C 215.672,189.415 214.672,190.081 213.5,190.5C 206.963,184.142 199.297,179.642 190.5,177C 130.682,184.104 91.5156,159.271 73,102.5C 71.4101,98.1568 71.2434,93.8235 72.5,89.5 Z"/></g>
<g><path style="opacity:1" fill="#c87e46" d="M 89.5,101.5 C 90.9778,101.238 92.3112,101.571 93.5,102.5C 98.8022,111.417 105.302,119.417 113,126.5C 114.505,131.355 117.338,135.188 121.5,138C 113.862,135.058 107.362,130.224 102,123.5C 96.5212,117.516 92.0212,110.85 88.5,103.5C 88.8627,102.817 89.1961,102.15 89.5,101.5 Z"/></g>
<g><path style="opacity:1" fill="#071842" d="M 66.5,209.5 C 66.5,209.167 66.5,208.833 66.5,208.5C 77.8333,208.5 89.1667,208.5 100.5,208.5C 100.5,210.5 100.5,212.5 100.5,214.5C 99.5489,213.081 99.2155,211.415 99.5,209.5C 88.5,209.5 77.5,209.5 66.5,209.5 Z"/></g>
<g><path style="opacity:1" fill="#1e4e69" d="M 66.5,209.5 C 77.5,209.5 88.5,209.5 99.5,209.5C 99.2155,211.415 99.5489,213.081 100.5,214.5C 92.3501,215.493 84.0168,215.826 75.5,215.5C 75.5,222.5 75.5,229.5 75.5,236.5C 82.8333,236.5 90.1667,236.5 97.5,236.5C 97.5,238.5 97.5,240.5 97.5,242.5C 90.1667,242.5 82.8333,242.5 75.5,242.5C 75.5,249.833 75.5,257.167 75.5,264.5C 84.1667,264.5 92.8333,264.5 101.5,264.5C 101.5,266.5 101.5,268.5 101.5,270.5C 89.8333,270.5 78.1667,270.5 66.5,270.5C 66.5,250.167 66.5,229.833 66.5,209.5 Z"/></g>
<g><path style="opacity:1" fill="#24516c" d="M 158.5,255.5 C 159.496,240.342 159.83,225.009 159.5,209.5C 161.5,209.5 163.5,209.5 165.5,209.5C 165.5,229.833 165.5,250.167 165.5,270.5C 163.167,270.5 160.833,270.5 158.5,270.5C 147.02,255.569 135.52,240.569 124,225.5C 123.667,240.5 123.333,255.5 123,270.5C 120.281,271.444 117.448,271.777 114.5,271.5C 114.5,250.5 114.5,229.5 114.5,208.5C 118.603,207.769 122.103,208.769 125,211.5C 135.647,226.636 146.813,241.302 158.5,255.5 Z"/></g>
<g><path style="opacity:1" fill="#0c2439" d="M 165.5,208.5 C 165.5,208.833 165.5,209.167 165.5,209.5C 163.5,209.5 161.5,209.5 159.5,209.5C 159.83,225.009 159.496,240.342 158.5,255.5C 158.5,239.833 158.5,224.167 158.5,208.5C 160.833,208.5 163.167,208.5 165.5,208.5 Z"/></g>
<g><path style="opacity:1" fill="#5e737c" d="M 165.5,208.5 C 166.497,229.327 166.831,250.327 166.5,271.5C 163.615,271.806 160.948,271.473 158.5,270.5C 160.833,270.5 163.167,270.5 165.5,270.5C 165.5,250.167 165.5,229.833 165.5,209.5C 165.5,209.167 165.5,208.833 165.5,208.5 Z"/></g>
<g><path style="opacity:1" fill="#224e69" d="M 195.5,207.5 C 202.964,206.804 210.131,207.804 217,210.5C 216.955,216.588 214.121,218.088 208.5,215C 201.991,213.241 196.491,214.741 192,219.5C 190.703,224.117 191.87,227.95 195.5,231C 203.765,234.712 211.265,239.545 218,245.5C 222.521,254.79 220.687,262.623 212.5,269C 202.657,273.269 192.657,273.602 182.5,270C 179.744,266.587 180.077,263.42 183.5,260.5C 191.101,265.379 199.101,266.212 207.5,263C 212.098,258.92 212.598,254.42 209,249.5C 203.164,245.441 196.998,241.941 190.5,239C 182.185,232.67 180.352,224.836 185,215.5C 187.94,211.963 191.44,209.297 195.5,207.5 Z"/></g>
<g><path style="opacity:1" fill="#09385a" d="M 276.5,209.5 C 278.948,208.527 281.615,208.194 284.5,208.5C 284.83,224.009 284.496,239.342 283.5,254.5C 283.5,239.5 283.5,224.5 283.5,209.5C 281.167,209.5 278.833,209.5 276.5,209.5 Z"/></g>
<g><path style="opacity:1" fill="#234f69" d="M 312.5,207.5 C 319.634,206.827 326.468,207.827 333,210.5C 334.067,213.598 333.067,215.598 330,216.5C 323.356,213.827 316.856,213.994 310.5,217C 307.433,222.2 308.1,226.867 312.5,231C 320.256,234.625 327.423,239.125 334,244.5C 340.058,257.208 336.558,266.041 323.5,271C 313.967,273.635 304.967,272.468 296.5,267.5C 297.095,264.683 298.428,262.35 300.5,260.5C 307.723,265.482 315.39,266.315 323.5,263C 327.613,259.491 328.446,255.324 326,250.5C 319.507,245.78 312.673,241.613 305.5,238C 299.703,232.409 297.87,225.576 300,217.5C 301.715,215.241 303.548,213.074 305.5,211C 308.174,210.33 310.507,209.163 312.5,207.5 Z"/></g>
<g><path style="opacity:1" fill="#234f69" d="M 27.5,207.5 C 33.5771,207.196 39.5771,207.696 45.5,209C 49.6522,210.23 50.6522,212.73 48.5,216.5C 42.5405,215.341 36.5405,214.841 30.5,215C 24.0048,216.846 21.8381,221.012 24,227.5C 29.4632,232.436 35.6299,236.269 42.5,239C 52.6647,244.843 55.1647,253.009 50,263.5C 42.8615,271.168 34.0282,274.001 23.5,272C 19.7909,271.367 16.2909,270.2 13,268.5C 11.9135,265.376 12.7468,263.043 15.5,261.5C 23.5937,265.899 31.7604,266.232 40,262.5C 44.7184,257.525 44.5517,252.692 39.5,248C 33.0087,244.922 26.6754,241.588 20.5,238C 11.7224,229.59 11.389,220.924 19.5,212C 22.3911,210.726 25.0578,209.226 27.5,207.5 Z"/></g>
<g><path style="opacity:1" fill="#d2d5d7" d="M 97.5,242.5 C 90.6866,243.491 83.6866,243.825 76.5,243.5C 76.5,250.167 76.5,256.833 76.5,263.5C 85.0168,263.174 93.3501,263.507 101.5,264.5C 92.8333,264.5 84.1667,264.5 75.5,264.5C 75.5,257.167 75.5,249.833 75.5,242.5C 82.8333,242.5 90.1667,242.5 97.5,242.5 Z"/></g>
<g><path style="opacity:1" fill="#2a546d" d="M 276.5,209.5 C 278.833,209.5 281.167,209.5 283.5,209.5C 283.5,224.5 283.5,239.5 283.5,254.5C 282.013,264.818 276.013,270.652 265.5,272C 249.155,275.421 238.655,269.254 234,253.5C 233.333,238.833 233.333,224.167 234,209.5C 237.057,208.549 240.223,208.216 243.5,208.5C 243.333,223.504 243.5,238.504 244,253.5C 246.215,261.057 251.215,264.724 259,264.5C 266.914,265.246 272.248,261.913 275,254.5C 275.169,239.328 275.669,224.328 276.5,209.5 Z"/></g>
<g><path style="opacity:1" fill="#696e74" d="M 66.5,208.5 C 66.5,208.833 66.5,209.167 66.5,209.5C 66.5,229.833 66.5,250.167 66.5,270.5C 78.1667,270.5 89.8333,270.5 101.5,270.5C 101.5,268.5 101.5,266.5 101.5,264.5C 102.468,266.607 102.802,268.941 102.5,271.5C 90.1667,271.5 77.8333,271.5 65.5,271.5C 65.1694,250.327 65.5027,229.327 66.5,208.5 Z"/></g>
</svg>
